# xmcd
#
# Track frame offsets:
#	150
#	19305
#	24645
#	39420
#	49230
#	50372
#
# Disc length: 927 seconds
# Revision: 0
# Processed by: cddbd v1.5.2PL0 Copyright (c) Steve Scherf et al.
# Submitted via: dBpowerAMP V12.0
#
DISCID=48039d06
DTITLE=Da La Soul - Breakadawn - En Focus
DYEAR=1993
DGENRE=Hip Hop
TTITLE0=Breakadawn (Vocal)
TTITLE1=Stickabush
TTITLE2=En Focus
TTITLE3=The Dawn Brings Smoke
TTITLE4=Hsubakcits
TTITLE5=Breaksdawn (instrumental)
EXTD=
EXTT0=
EXTT1=
EXTT2=
EXTT3=
EXTT4=
EXTT5=
PLAYORDER=
